<svg xmlns="http://www.w3.org/2000/svg" xmlns:xlink="http://www.w3.org/1999/xlink" width="300" zoomAndPan="magnify" viewBox="0 0 224.87999 112.499997" height="150" preserveAspectRatio="xMidYMid meet" version="1.0"><defs><g/><clipPath id="02146376d6"><path d="M 61 43 L 87 43 L 87 69 L 61 69 Z M 61 43 " clip-rule="nonzero"/></clipPath><clipPath id="76b145b6ac"><path d="M 74.328125 43.507812 L 87 56.179688 L 74.328125 68.851562 L 61.660156 56.179688 Z M 74.328125 43.507812 " clip-rule="nonzero"/></clipPath><clipPath id="a827a411be"><path d="M 74.328125 43.507812 L 86.820312 55.996094 L 74.328125 68.488281 L 61.839844 55.996094 Z M 74.328125 43.507812 " clip-rule="nonzero"/></clipPath><clipPath id="c0c138d438"><path d="M 76 43 L 102 43 L 102 69 L 76 69 Z M 76 43 " clip-rule="nonzero"/></clipPath><clipPath id="9896d06b16"><path d="M 88.714844 43.507812 L 101.386719 56.179688 L 88.714844 68.851562 L 76.042969 56.179688 Z M 88.714844 43.507812 " clip-rule="nonzero"/></clipPath><clipPath id="509f2aff3e"><path d="M 88.714844 43.507812 L 101.203125 55.996094 L 88.714844 68.488281 L 76.222656 55.996094 Z M 88.714844 43.507812 " clip-rule="nonzero"/></clipPath><clipPath id="2c78047e72"><path d="M 104.578125 43.335938 L 163.0625 43.335938 L 163.0625 68.667969 L 104.578125 68.667969 Z M 104.578125 43.335938 " clip-rule="nonzero"/></clipPath><clipPath id="44e5ebb0df"><path d="M 109.730469 43.335938 L 157.890625 43.335938 C 159.257812 43.335938 160.566406 43.878906 161.53125 44.84375 C 162.5 45.808594 163.042969 47.121094 163.042969 48.488281 L 163.042969 63.515625 C 163.042969 64.882812 162.5 66.191406 161.53125 67.160156 C 160.566406 68.125 159.257812 68.667969 157.890625 68.667969 L 109.730469 68.667969 C 108.367188 68.667969 107.054688 68.125 106.089844 67.160156 C 105.121094 66.191406 104.578125 64.882812 104.578125 63.515625 L 104.578125 48.488281 C 104.578125 47.121094 105.121094 45.808594 106.089844 44.84375 C 107.054688 43.878906 108.367188 43.335938 109.730469 43.335938 Z M 109.730469 43.335938 " clip-rule="nonzero"/></clipPath><clipPath id="7d1a48f9ed"><path d="M 0.578125 0.335938 L 59.0625 0.335938 L 59.0625 25.667969 L 0.578125 25.667969 Z M 0.578125 0.335938 " clip-rule="nonzero"/></clipPath><clipPath id="aa4f8852a5"><path d="M 5.730469 0.335938 L 53.890625 0.335938 C 55.257812 0.335938 56.566406 0.878906 57.53125 1.84375 C 58.5 2.808594 59.042969 4.121094 59.042969 5.488281 L 59.042969 20.515625 C 59.042969 21.882812 58.5 23.191406 57.53125 24.160156 C 56.566406 25.125 55.257812 25.667969 53.890625 25.667969 L 5.730469 25.667969 C 4.367188 25.667969 3.054688 25.125 2.089844 24.160156 C 1.121094 23.191406 0.578125 21.882812 0.578125 20.515625 L 0.578125 5.488281 C 0.578125 4.121094 1.121094 2.808594 2.089844 1.84375 C 3.054688 0.878906 4.367188 0.335938 5.730469 0.335938 Z M 5.730469 0.335938 " clip-rule="nonzero"/></clipPath><clipPath id="392b116511"><rect x="0" width="60" y="0" height="26"/></clipPath></defs><g clip-path="url(#02146376d6)"><g clip-path="url(#76b145b6ac)"><g clip-path="url(#a827a411be)"><path stroke-linecap="butt" transform="matrix(0.527983, 0.527983, -0.527983, 0.527983, 74.330045, 43.507938)" fill="none" stroke-linejoin="miter" d="M -0.00193696 0.00169949 L 23.654553 -0.00199973 L 23.654553 23.65819 L -0.00193696 23.654491 Z M -0.00193696 0.00169949 " stroke="#ffffff" stroke-width="4" stroke-opacity="1" stroke-miterlimit="4"/></g></g></g><g clip-path="url(#c0c138d438)"><g clip-path="url(#9896d06b16)"><g clip-path="url(#509f2aff3e)"><path stroke-linecap="butt" transform="matrix(0.527983, 0.527983, -0.527983, 0.527983, 88.713491, 43.507938)" fill="none" stroke-linejoin="miter" d="M 0.00116219 -0.00139967 L 23.653953 -0.00139967 L 23.657652 23.655091 L -0.00253703 23.655091 Z M 0.00116219 -0.00139967 " stroke="#ffffff" stroke-width="4" stroke-opacity="1" stroke-miterlimit="4"/></g></g></g><g clip-path="url(#2c78047e72)"><g clip-path="url(#44e5ebb0df)"><g transform="matrix(1, 0, 0, 1, 104, 43)"><g clip-path="url(#392b116511)"><g clip-path="url(#7d1a48f9ed)"><g clip-path="url(#aa4f8852a5)"><path fill="#ffffff" d="M 0.578125 0.335938 L 59.0625 0.335938 L 59.0625 25.667969 L 0.578125 25.667969 Z M 0.578125 0.335938 " fill-opacity="1" fill-rule="nonzero"/></g></g></g></g></g></g><g fill="#000000" fill-opacity="1"><g transform="translate(113.0734, 60.508417)"><g><path d="M 0.984375 0 L 0.984375 -6.859375 L 2.640625 -6.859375 L 2.640625 -5.9375 L 2.765625 -5.90625 C 2.992188 -6.28125 3.257812 -6.550781 3.5625 -6.71875 C 3.863281 -6.894531 4.25 -6.984375 4.71875 -6.984375 C 5.226562 -6.984375 5.640625 -6.878906 5.953125 -6.671875 C 6.273438 -6.472656 6.507812 -6.175781 6.65625 -5.78125 L 6.78125 -5.78125 C 6.988281 -6.1875 7.257812 -6.488281 7.59375 -6.6875 C 7.9375 -6.882812 8.351562 -6.984375 8.84375 -6.984375 C 10.269531 -6.984375 10.984375 -6.191406 10.984375 -4.609375 L 10.984375 0 L 9.265625 0 L 9.265625 -4.390625 C 9.265625 -4.796875 9.179688 -5.085938 9.015625 -5.265625 C 8.859375 -5.441406 8.609375 -5.53125 8.265625 -5.53125 C 7.316406 -5.53125 6.84375 -4.898438 6.84375 -3.640625 L 6.84375 0 L 5.125 0 L 5.125 -4.390625 C 5.125 -4.796875 5.039062 -5.085938 4.875 -5.265625 C 4.71875 -5.441406 4.46875 -5.53125 4.125 -5.53125 C 3.675781 -5.53125 3.328125 -5.378906 3.078125 -5.078125 C 2.835938 -4.785156 2.71875 -4.316406 2.71875 -3.671875 L 2.71875 0 Z M 0.984375 0 "/></g></g></g><g fill="#000000" fill-opacity="1"><g transform="translate(124.931865, 60.508417)"><g><path d="M 3.984375 0.125 C 3.316406 0.125 2.726562 -0.0078125 2.21875 -0.28125 C 1.707031 -0.5625 1.3125 -0.96875 1.03125 -1.5 C 0.75 -2.03125 0.609375 -2.671875 0.609375 -3.421875 C 0.609375 -4.179688 0.75 -4.828125 1.03125 -5.359375 C 1.3125 -5.890625 1.707031 -6.289062 2.21875 -6.5625 C 2.726562 -6.84375 3.316406 -6.984375 3.984375 -6.984375 C 4.660156 -6.984375 5.25 -6.84375 5.75 -6.5625 C 6.257812 -6.289062 6.65625 -5.890625 6.9375 -5.359375 C 7.21875 -4.828125 7.359375 -4.179688 7.359375 -3.421875 C 7.359375 -2.671875 7.21875 -2.03125 6.9375 -1.5 C 6.65625 -0.96875 6.257812 -0.5625 5.75 -0.28125 C 5.25 -0.0078125 4.660156 0.125 3.984375 0.125 Z M 3.984375 -1.328125 C 5.046875 -1.328125 5.578125 -2.023438 5.578125 -3.421875 C 5.578125 -4.148438 5.441406 -4.679688 5.171875 -5.015625 C 4.898438 -5.359375 4.503906 -5.53125 3.984375 -5.53125 C 2.921875 -5.53125 2.390625 -4.828125 2.390625 -3.421875 C 2.390625 -2.023438 2.921875 -1.328125 3.984375 -1.328125 Z M 3.984375 -1.328125 "/></g></g></g><g fill="#000000" fill-opacity="1"><g transform="translate(132.899661, 60.508417)"><g><path d="M 0.984375 0 L 0.984375 -6.859375 L 2.65625 -6.859375 L 2.65625 -5.84375 L 2.796875 -5.8125 C 2.960938 -6.195312 3.175781 -6.476562 3.4375 -6.65625 C 3.707031 -6.832031 4.035156 -6.921875 4.421875 -6.921875 C 4.816406 -6.921875 5.113281 -6.851562 5.3125 -6.71875 L 5.03125 -5.234375 L 4.890625 -5.203125 C 4.773438 -5.253906 4.664062 -5.289062 4.5625 -5.3125 C 4.46875 -5.332031 4.34375 -5.34375 4.1875 -5.34375 C 3.707031 -5.34375 3.34375 -5.171875 3.09375 -4.828125 C 2.84375 -4.492188 2.71875 -3.953125 2.71875 -3.203125 L 2.71875 0 Z M 0.984375 0 "/></g></g></g><g fill="#000000" fill-opacity="1"><g transform="translate(138.275753, 60.508417)"><g><path d="M 0.984375 2.78125 L 0.984375 -6.859375 L 2.71875 -6.859375 L 2.71875 -5.96875 L 2.84375 -5.9375 C 3.039062 -6.28125 3.3125 -6.539062 3.65625 -6.71875 C 4 -6.894531 4.394531 -6.984375 4.84375 -6.984375 C 5.394531 -6.984375 5.878906 -6.851562 6.296875 -6.59375 C 6.710938 -6.332031 7.035156 -5.9375 7.265625 -5.40625 C 7.492188 -4.875 7.609375 -4.210938 7.609375 -3.421875 C 7.609375 -2.640625 7.484375 -1.984375 7.234375 -1.453125 C 6.992188 -0.921875 6.65625 -0.523438 6.21875 -0.265625 C 5.789062 -0.00390625 5.296875 0.125 4.734375 0.125 C 4.304688 0.125 3.9375 0.0546875 3.625 -0.078125 C 3.320312 -0.222656 3.0625 -0.445312 2.84375 -0.75 L 2.71875 -0.734375 L 2.71875 2.78125 Z M 4.265625 -1.328125 C 4.773438 -1.328125 5.160156 -1.492188 5.421875 -1.828125 C 5.691406 -2.171875 5.828125 -2.703125 5.828125 -3.421875 C 5.828125 -4.148438 5.691406 -4.679688 5.421875 -5.015625 C 5.160156 -5.359375 4.773438 -5.53125 4.265625 -5.53125 C 3.773438 -5.53125 3.390625 -5.351562 3.109375 -5 C 2.828125 -4.65625 2.6875 -4.128906 2.6875 -3.421875 C 2.6875 -2.722656 2.828125 -2.195312 3.109375 -1.84375 C 3.390625 -1.5 3.773438 -1.328125 4.265625 -1.328125 Z M 4.265625 -1.328125 "/></g></g></g><g fill="#000000" fill-opacity="1"><g transform="translate(146.485944, 60.508417)"><g><path d="M 0.984375 0 L 0.984375 -9.609375 L 2.71875 -9.609375 L 2.71875 -5.96875 L 2.84375 -5.9375 C 3.070312 -6.269531 3.347656 -6.523438 3.671875 -6.703125 C 4.003906 -6.890625 4.40625 -6.984375 4.875 -6.984375 C 6.394531 -6.984375 7.15625 -6.128906 7.15625 -4.421875 L 7.15625 0 L 5.421875 0 L 5.421875 -4.203125 C 5.421875 -4.671875 5.328125 -5.007812 5.140625 -5.21875 C 4.960938 -5.425781 4.675781 -5.53125 4.28125 -5.53125 C 3.800781 -5.53125 3.421875 -5.367188 3.140625 -5.046875 C 2.859375 -4.722656 2.71875 -4.222656 2.71875 -3.546875 L 2.71875 0 Z M 0.984375 0 "/></g></g></g></svg>