<svg xmlns="http://www.w3.org/2000/svg" xmlns:xlink="http://www.w3.org/1999/xlink" width="220" zoomAndPan="magnify" viewBox="0 0 165 52.499999" height="70" preserveAspectRatio="xMidYMid meet" version="1.0"><defs><g/><clipPath id="0cbbd7b07a"><path d="M 5 7 L 43 7 L 43 45 L 5 45 Z M 5 7 " clip-rule="nonzero"/></clipPath><clipPath id="abb1afea31"><path d="M 23.734375 7.410156 L 42.121094 25.796875 L 23.734375 44.183594 L 5.347656 25.796875 Z M 23.734375 7.410156 " clip-rule="nonzero"/></clipPath><clipPath id="124fb469ca"><path d="M 23.734375 7.410156 L 42.328125 26 L 23.734375 44.59375 L 5.144531 26 Z M 23.734375 7.410156 " clip-rule="nonzero"/></clipPath><clipPath id="2ab26e4de0"><path d="M 26 7 L 64 7 L 64 45 L 26 45 Z M 26 7 " clip-rule="nonzero"/></clipPath><clipPath id="059f7ba33a"><path d="M 45.140625 7.410156 L 63.527344 25.796875 L 45.140625 44.183594 L 26.753906 25.796875 Z M 45.140625 7.410156 " clip-rule="nonzero"/></clipPath><clipPath id="dc68beca38"><path d="M 45.140625 7.410156 L 63.730469 26 L 45.140625 44.59375 L 26.546875 26 Z M 45.140625 7.410156 " clip-rule="nonzero"/></clipPath><clipPath id="a5d47a3bc8"><path d="M 72.859375 7.152344 L 159.890625 7.152344 L 159.890625 44.851562 L 72.859375 44.851562 Z M 72.859375 7.152344 " clip-rule="nonzero"/></clipPath><clipPath id="1d71bbbcaf"><path d="M 77.074219 7.152344 L 155.640625 7.152344 C 156.757812 7.152344 157.832031 7.597656 158.621094 8.386719 C 159.414062 9.179688 159.855469 10.25 159.855469 11.371094 L 159.855469 40.632812 C 159.855469 41.753906 159.414062 42.824219 158.621094 43.617188 C 157.832031 44.40625 156.757812 44.851562 155.640625 44.851562 L 77.074219 44.851562 C 75.957031 44.851562 74.882812 44.40625 74.09375 43.617188 C 73.304688 42.824219 72.859375 41.753906 72.859375 40.632812 L 72.859375 11.371094 C 72.859375 10.25 73.304688 9.179688 74.09375 8.386719 C 74.882812 7.597656 75.957031 7.152344 77.074219 7.152344 Z M 77.074219 7.152344 " clip-rule="nonzero"/></clipPath><clipPath id="f6eb966fe6"><path d="M 0.859375 0.152344 L 87.890625 0.152344 L 87.890625 37.851562 L 0.859375 37.851562 Z M 0.859375 0.152344 " clip-rule="nonzero"/></clipPath><clipPath id="4628490d55"><path d="M 5.074219 0.152344 L 83.640625 0.152344 C 84.757812 0.152344 85.832031 0.597656 86.621094 1.386719 C 87.414062 2.179688 87.855469 3.25 87.855469 4.371094 L 87.855469 33.632812 C 87.855469 34.753906 87.414062 35.824219 86.621094 36.617188 C 85.832031 37.40625 84.757812 37.851562 83.640625 37.851562 L 5.074219 37.851562 C 3.957031 37.851562 2.882812 37.40625 2.09375 36.617188 C 1.304688 35.824219 0.859375 34.753906 0.859375 33.632812 L 0.859375 4.371094 C 0.859375 3.25 1.304688 2.179688 2.09375 1.386719 C 2.882812 0.597656 3.957031 0.152344 5.074219 0.152344 Z M 5.074219 0.152344 " clip-rule="nonzero"/></clipPath><clipPath id="22b3fe515e"><rect x="0" width="88" y="0" height="38"/></clipPath></defs><g clip-path="url(#0cbbd7b07a)"><g clip-path="url(#abb1afea31)"><g clip-path="url(#124fb469ca)"><path stroke-linecap="butt" transform="matrix(0.525327, 0.525327, -0.525327, 0.525327, 23.735244, 7.409528)" fill="none" stroke-linejoin="miter" d="M -0.000228912 0.00142454 L 35.390681 -0.00229338 L 35.390681 35.392335 L -0.000228912 35.388617 Z M -0.000228912 0.00142454 " stroke="#ffffff" stroke-width="8" stroke-opacity="1" stroke-miterlimit="4"/></g></g></g><g clip-path="url(#2ab26e4de0)"><g clip-path="url(#059f7ba33a)"><g clip-path="url(#dc68beca38)"><path stroke-linecap="butt" transform="matrix(0.525327, 0.525327, -0.525327, 0.525327, 45.139656, 7.409528)" fill="none" stroke-linejoin="miter" d="M 0.00152015 -0.000324525 L 35.388713 -0.000324525 L 35.39243 35.390586 L -0.00219777 35.390586 Z M 0.00152015 -0.000324525 " stroke="#ffffff" stroke-width="8" stroke-opacity="1" stroke-miterlimit="4"/></g></g></g><g clip-path="url(#a5d47a3bc8)"><g clip-path="url(#1d71bbbcaf)"><g transform="matrix(1, 0, 0, 1, 72, 7)"><g clip-path="url(#22b3fe515e)"><g clip-path="url(#f6eb966fe6)"><g clip-path="url(#4628490d55)"><path fill="#ffffff" d="M 0.859375 0.152344 L 87.890625 0.152344 L 87.890625 37.851562 L 0.859375 37.851562 Z M 0.859375 0.152344 " fill-opacity="1" fill-rule="nonzero"/></g></g></g></g></g></g><g fill="#000000" fill-opacity="1"><g transform="translate(85.059002, 33.155549)"><g><path d="M 1.5 0 L 1.5 -10.359375 L 3.984375 -10.359375 L 3.984375 -8.96875 L 4.1875 -8.9375 C 4.53125 -9.488281 4.925781 -9.894531 5.375 -10.15625 C 5.832031 -10.425781 6.414062 -10.5625 7.125 -10.5625 C 7.90625 -10.5625 8.53125 -10.40625 9 -10.09375 C 9.476562 -9.78125 9.828125 -9.328125 10.046875 -8.734375 L 10.25 -8.734375 C 10.5625 -9.359375 10.96875 -9.816406 11.46875 -10.109375 C 11.976562 -10.410156 12.609375 -10.5625 13.359375 -10.5625 C 15.503906 -10.5625 16.578125 -9.363281 16.578125 -6.96875 L 16.578125 0 L 13.984375 0 L 13.984375 -6.640625 C 13.984375 -7.242188 13.863281 -7.679688 13.625 -7.953125 C 13.382812 -8.222656 13.003906 -8.359375 12.484375 -8.359375 C 11.054688 -8.359375 10.34375 -7.40625 10.34375 -5.5 L 10.34375 0 L 7.734375 0 L 7.734375 -6.640625 C 7.734375 -7.242188 7.613281 -7.679688 7.375 -7.953125 C 7.132812 -8.222656 6.753906 -8.359375 6.234375 -8.359375 C 5.554688 -8.359375 5.03125 -8.132812 4.65625 -7.6875 C 4.28125 -7.238281 4.09375 -6.523438 4.09375 -5.546875 L 4.09375 0 Z M 1.5 0 "/></g></g></g><g fill="#000000" fill-opacity="1"><g transform="translate(102.968088, 33.155549)"><g><path d="M 6.015625 0.203125 C 5.003906 0.203125 4.113281 -0.00390625 3.34375 -0.421875 C 2.582031 -0.835938 1.988281 -1.445312 1.5625 -2.25 C 1.144531 -3.0625 0.9375 -4.035156 0.9375 -5.171875 C 0.9375 -6.316406 1.144531 -7.289062 1.5625 -8.09375 C 1.988281 -8.90625 2.582031 -9.519531 3.34375 -9.9375 C 4.113281 -10.351562 5.003906 -10.5625 6.015625 -10.5625 C 7.035156 -10.5625 7.925781 -10.351562 8.6875 -9.9375 C 9.457031 -9.519531 10.054688 -8.90625 10.484375 -8.09375 C 10.910156 -7.289062 11.125 -6.316406 11.125 -5.171875 C 11.125 -4.035156 10.910156 -3.0625 10.484375 -2.25 C 10.054688 -1.445312 9.457031 -0.835938 8.6875 -0.421875 C 7.925781 -0.00390625 7.035156 0.203125 6.015625 0.203125 Z M 6.015625 -2.015625 C 7.628906 -2.015625 8.4375 -3.066406 8.4375 -5.171875 C 8.4375 -6.265625 8.226562 -7.066406 7.8125 -7.578125 C 7.394531 -8.085938 6.796875 -8.34375 6.015625 -8.34375 C 4.410156 -8.34375 3.609375 -7.285156 3.609375 -5.171875 C 3.609375 -3.066406 4.410156 -2.015625 6.015625 -2.015625 Z M 6.015625 -2.015625 "/></g></g></g><g fill="#000000" fill-opacity="1"><g transform="translate(115.001343, 33.155549)"><g><path d="M 1.5 0 L 1.5 -10.359375 L 4.015625 -10.359375 L 4.015625 -8.8125 L 4.21875 -8.78125 C 4.46875 -9.351562 4.796875 -9.773438 5.203125 -10.046875 C 5.609375 -10.316406 6.101562 -10.453125 6.6875 -10.453125 C 7.269531 -10.453125 7.71875 -10.351562 8.03125 -10.15625 L 7.59375 -7.90625 L 7.390625 -7.875 C 7.222656 -7.9375 7.0625 -7.984375 6.90625 -8.015625 C 6.75 -8.046875 6.554688 -8.0625 6.328125 -8.0625 C 5.597656 -8.0625 5.039062 -7.804688 4.65625 -7.296875 C 4.28125 -6.785156 4.09375 -5.96875 4.09375 -4.84375 L 4.09375 0 Z M 1.5 0 "/></g></g></g><g fill="#000000" fill-opacity="1"><g transform="translate(123.120504, 33.155549)"><g><path d="M 1.5 4.203125 L 1.5 -10.359375 L 4.09375 -10.359375 L 4.09375 -9 L 4.296875 -8.96875 C 4.597656 -9.5 5.003906 -9.894531 5.515625 -10.15625 C 6.035156 -10.425781 6.640625 -10.5625 7.328125 -10.5625 C 8.160156 -10.5625 8.882812 -10.363281 9.5 -9.96875 C 10.125 -9.570312 10.609375 -8.96875 10.953125 -8.15625 C 11.304688 -7.351562 11.484375 -6.359375 11.484375 -5.171875 C 11.484375 -3.992188 11.300781 -3.003906 10.9375 -2.203125 C 10.570312 -1.398438 10.0625 -0.796875 9.40625 -0.390625 C 8.757812 0.00390625 8.007812 0.203125 7.15625 0.203125 C 6.507812 0.203125 5.953125 0.09375 5.484375 -0.125 C 5.015625 -0.34375 4.617188 -0.679688 4.296875 -1.140625 L 4.09375 -1.09375 L 4.09375 4.203125 Z M 6.4375 -2.015625 C 7.207031 -2.015625 7.789062 -2.265625 8.1875 -2.765625 C 8.59375 -3.273438 8.796875 -4.078125 8.796875 -5.171875 C 8.796875 -6.265625 8.59375 -7.066406 8.1875 -7.578125 C 7.789062 -8.085938 7.207031 -8.34375 6.4375 -8.34375 C 5.707031 -8.34375 5.128906 -8.078125 4.703125 -7.546875 C 4.273438 -7.023438 4.0625 -6.234375 4.0625 -5.171875 C 4.0625 -4.117188 4.273438 -3.328125 4.703125 -2.796875 C 5.128906 -2.273438 5.707031 -2.015625 6.4375 -2.015625 Z M 6.4375 -2.015625 "/></g></g></g><g fill="#000000" fill-opacity="1"><g transform="translate(135.519825, 33.155549)"><g><path d="M 1.5 0 L 1.5 -14.515625 L 4.09375 -14.515625 L 4.09375 -9 L 4.296875 -8.96875 C 4.640625 -9.476562 5.0625 -9.867188 5.5625 -10.140625 C 6.0625 -10.421875 6.664062 -10.5625 7.375 -10.5625 C 9.65625 -10.5625 10.796875 -9.265625 10.796875 -6.671875 L 10.796875 0 L 8.203125 0 L 8.203125 -6.34375 C 8.203125 -7.050781 8.0625 -7.5625 7.78125 -7.875 C 7.5 -8.195312 7.0625 -8.359375 6.46875 -8.359375 C 5.738281 -8.359375 5.160156 -8.113281 4.734375 -7.625 C 4.304688 -7.144531 4.09375 -6.390625 4.09375 -5.359375 L 4.09375 0 Z M 1.5 0 "/></g></g></g></svg>